<svg width="32" height="32" viewBox="0 0 24 24" fill="none" xmlns="http://www.w3.org/2000/svg">
<path fill-rule="evenodd" clip-rule="evenodd" d="M12 7.333C12 8.62148 10.9555 9.666 9.66698 9.666C8.3785 9.666 7.33398 8.62148 7.33398 7.333C7.33398 6.04452 8.3785 5 9.66698 5C10.9555 5 12 6.04452 12 7.333Z" stroke="#3D4C66" stroke-width="1" stroke-linecap="round" stroke-linejoin="round"/>
<path fill-rule="evenodd" clip-rule="evenodd" d="M14.333 15.7328C14.333 17.5328 12.244 18.9998 9.666 18.9998C7.088 18.9998 5 17.5368 5 15.7328C5 13.9288 7.089 12.4668 9.667 12.4668C12.245 12.4668 14.333 13.9288 14.333 15.7328Z" stroke="#3D4C66" stroke-width="1" stroke-linecap="round" stroke-linejoin="round"/>
<path fill-rule="evenodd" clip-rule="evenodd" d="M16.9389 9.51133C16.9389 10.2845 16.3121 10.9113 15.5389 10.9113C14.7657 10.9113 14.1389 10.2845 14.1389 9.51133C14.1389 8.73813 14.7657 8.11133 15.5389 8.11133C15.9102 8.11133 16.2663 8.25883 16.5289 8.52138C16.7914 8.78393 16.9389 9.14003 16.9389 9.51133Z" stroke="#3D4C66" stroke-width="1" stroke-linecap="round" stroke-linejoin="round"/>
<path d="M16.2 18.0665C17.6137 18.1826 18.8596 17.144 19 15.7325C18.8591 14.3213 17.6134 13.2834 16.2 13.3995" stroke="#3D4C66" stroke-width="1" stroke-linecap="round" stroke-linejoin="round"/>
</svg>
