<svg width="48" height="48" viewBox="0 0 48 48" fill="none" xmlns="http://www.w3.org/2000/svg">
<path fill-rule="evenodd" clip-rule="evenodd" d="M18.1704 35.964L14.6364 37.764C14.499 37.8324 14.336 37.8242 14.2061 37.7425C14.0762 37.6609 13.9983 37.5174 14.0004 37.364V11.91C13.9792 10.8768 14.7992 10.0219 15.8324 10H34.1664C35.1996 10.0219 36.0196 10.8768 35.9984 11.91V37.364C36.0005 37.5174 35.9226 37.6609 35.7927 37.7425C35.6628 37.8242 35.4998 37.8324 35.3624 37.764L31.8284 35.964C31.6877 35.8922 31.5189 35.9029 31.3884 35.992L28.5444 37.924C28.3971 38.0241 28.2037 38.0241 28.0564 37.924L25.2444 36.014C25.0971 35.9139 24.9037 35.9139 24.7564 36.014L21.9444 37.924C21.7971 38.0241 21.6037 38.0241 21.4564 37.924L18.6104 36C18.4814 35.9083 18.3126 35.8945 18.1704 35.964Z" stroke="#3D4C66" stroke-width="1.5" stroke-linecap="round" stroke-linejoin="round"/>
<path d="M19.9985 27.25C19.5843 27.25 19.2485 27.5858 19.2485 28C19.2485 28.4142 19.5843 28.75 19.9985 28.75V27.25ZM29.8265 28.75C30.2407 28.75 30.5765 28.4142 30.5765 28C30.5765 27.5858 30.2407 27.25 29.8265 27.25V28.75ZM21.5289 20.4697C21.236 20.1768 20.7611 20.1768 20.4682 20.4697C20.1753 20.7626 20.1753 21.2374 20.4682 21.5303L21.5289 20.4697ZM22.9985 23L22.4682 23.5303C22.7611 23.8232 23.236 23.8232 23.5289 23.5303L22.9985 23ZM29.5289 17.5303C29.8218 17.2374 29.8218 16.7626 29.5289 16.4697C29.236 16.1768 28.7611 16.1768 28.4682 16.4697L29.5289 17.5303ZM19.9985 28.75H29.8265V27.25H19.9985V28.75ZM20.4682 21.5303L22.4682 23.5303L23.5289 22.4697L21.5289 20.4697L20.4682 21.5303ZM23.5289 23.5303L29.5289 17.5303L28.4682 16.4697L22.4682 22.4697L23.5289 23.5303Z" fill="#3D4C66"/>
</svg>
