<svg width="48" height="48" viewBox="0 0 48 48" fill="none" xmlns="http://www.w3.org/2000/svg">
<path fill-rule="evenodd" clip-rule="evenodd" d="M24 21.2L10 15.6L17 12.8L24 10L38 15.6L31 18.4L24 21.2Z" stroke="#3D4C66" stroke-width="1.5" stroke-linecap="round" stroke-linejoin="round"/>
<path d="M23.7215 38.6962C24.106 38.85 24.5425 38.6629 24.6964 38.2783C24.8502 37.8938 24.6631 37.4573 24.2785 37.3034L23.7215 38.6962ZM10 32.3998H9.25C9.25 32.7065 9.43671 32.9823 9.72146 33.0962L10 32.3998ZM10.75 15.5998C10.75 15.1856 10.4142 14.8498 10 14.8498C9.58579 14.8498 9.25 15.1856 9.25 15.5998H10.75ZM23.7215 37.3034C23.3369 37.4573 23.1498 37.8938 23.3036 38.2783C23.4575 38.6629 23.894 38.85 24.2785 38.6962L23.7215 37.3034ZM38 32.3998L38.2785 33.0962C38.5633 32.9823 38.75 32.7065 38.75 32.3998H38ZM38.75 15.5998C38.75 15.1856 38.4142 14.8498 38 14.8498C37.5858 14.8498 37.25 15.1856 37.25 15.5998H38.75ZM23.25 37.9998C23.25 38.414 23.5858 38.7498 24 38.7498C24.4142 38.7498 24.75 38.414 24.75 37.9998H23.25ZM24.75 21.1998C24.75 20.7856 24.4142 20.4498 24 20.4498C23.5858 20.4498 23.25 20.7856 23.25 21.1998H24.75ZM17.2785 12.1034C16.894 11.9496 16.4575 12.1367 16.3036 12.5213C16.1498 12.9058 16.3369 13.3423 16.7215 13.4962L17.2785 12.1034ZM31 18.3998H31.75C31.75 18.0931 31.5633 17.8173 31.2785 17.7034L31 18.3998ZM30.25 22.9998C30.25 23.414 30.5858 23.7498 31 23.7498C31.4142 23.7498 31.75 23.414 31.75 22.9998H30.25ZM24.2785 37.3034L10.2785 31.7034L9.72146 33.0962L23.7215 38.6962L24.2785 37.3034ZM10.75 32.3998V15.5998H9.25V32.3998H10.75ZM24.2785 38.6962L38.2785 33.0962L37.7215 31.7034L23.7215 37.3034L24.2785 38.6962ZM38.75 32.3998V15.5998H37.25V32.3998H38.75ZM24.75 37.9998V21.1998H23.25V37.9998H24.75ZM16.7215 13.4962L30.7215 19.0962L31.2785 17.7034L17.2785 12.1034L16.7215 13.4962ZM30.25 18.3998V22.9998H31.75V18.3998H30.25Z" fill="#3D4C66"/>
</svg>
