<svg width="48" height="48" viewBox="0 0 48 48" fill="none" xmlns="http://www.w3.org/2000/svg">
<path fill-rule="evenodd" clip-rule="evenodd" d="M22.6 38C21.8669 38 21.2414 37.4694 21.122 36.746C21.0121 36.1608 20.5908 35.6826 20.024 35.5C19.5622 35.3415 19.1107 35.1544 18.672 34.94C18.15 34.673 17.5239 34.713 17.04 35.044C16.4545 35.4651 15.6501 35.3999 15.14 34.89L13.156 32.906C12.6221 32.372 12.5527 31.5302 12.992 30.916C13.3308 30.421 13.3796 29.7828 13.12 29.242C12.949 28.8663 12.7981 28.4818 12.668 28.09C12.4818 27.4726 11.9676 27.0101 11.334 26.89C10.57 26.7679 10.006 26.1117 10 25.338V22.856C9.99595 21.9642 10.6401 21.2014 11.52 21.056C12.1875 20.929 12.7449 20.4718 13 19.842C13.076 19.6647 13.156 19.4887 13.24 19.314C13.5793 18.6609 13.5324 17.8742 13.118 17.266C12.5998 16.5458 12.6794 15.5562 13.306 14.928L14.764 13.47C15.4831 12.7506 16.6172 12.6575 17.444 13.25L17.49 13.282C18.1074 13.6975 18.893 13.7728 19.578 13.482C20.3109 13.2182 20.851 12.5885 21 11.824L21.02 11.756C21.1847 10.7439 22.0586 10.0004 23.084 10H24.844C25.8971 9.99952 26.7958 10.7611 26.968 11.8L27 11.94C27.1414 12.6723 27.6535 13.2784 28.352 13.54C29.0252 13.8289 29.7993 13.7535 30.404 13.34L30.504 13.268C31.3523 12.6567 32.5187 12.7507 33.258 13.49L34.6 14.834C35.2725 15.5103 35.3571 16.5739 34.8 17.348C34.3636 17.995 34.3078 18.8265 34.654 19.526L34.74 19.726C35.0204 20.4089 35.6268 20.904 36.352 21.042C37.2998 21.1965 37.9969 22.0137 38 22.974V25.2C37.9997 26.0467 37.3873 26.7692 36.552 26.908C35.865 27.0397 35.3054 27.5372 35.094 28.204C35.0007 28.4707 34.8967 28.7373 34.782 29.004C34.5152 29.5899 34.5744 30.2727 34.938 30.804C35.4179 31.4716 35.3434 32.3886 34.762 32.97L32.9 34.834C32.3675 35.3664 31.5278 35.435 30.916 34.996C30.4053 34.6471 29.7437 34.6086 29.196 34.896C28.8058 35.0893 28.4052 35.2609 27.996 35.41C27.424 35.6073 27.0023 36.097 26.892 36.692C26.7754 37.4405 26.1336 37.9943 25.376 38H22.6Z" stroke="#3D4C66" stroke-width="1.5" stroke-linecap="round" stroke-linejoin="round"/>
<path fill-rule="evenodd" clip-rule="evenodd" d="M28.666 24C28.666 26.5769 26.5769 28.666 24 28.666C21.423 28.666 19.334 26.5769 19.334 24C19.334 21.423 21.423 19.334 24 19.334C26.5769 19.334 28.666 21.423 28.666 24Z" stroke="#3D4C66" stroke-width="1.5" stroke-linecap="round" stroke-linejoin="round"/>
</svg>
